<svg xmlns="http://www.w3.org/2000/svg" xmlns:xlink="http://www.w3.org/1999/xlink" width="119.795" height="19.094" viewBox="0 0 119.795 19.094">
  <defs>
    <linearGradient id="linear-gradient" x1="0.062" y1="0.183" x2="0.796" y2="1" gradientUnits="objectBoundingBox">
      <stop offset="0" stop-color="#f7e262"/>
      <stop offset="1" stop-color="#fbb03b"/>
    </linearGradient>
    <clipPath id="clip-path">
      <path id="Path_136464" data-name="Path 136464" d="M9.339.586l-2.514,5.1a.754.754,0,0,1-.561.412L.635,6.9A.742.742,0,0,0,0,7.614v.061a.7.7,0,0,0,.223.493L4.3,12.141a.752.752,0,0,1,.209.655l-.953,5.6a.734.734,0,0,0,1.074.777l5.027-2.642a.787.787,0,0,1,.7,0l5.021,2.642a.737.737,0,0,0,1.081-.777l-.96-5.6a.737.737,0,0,1,.216-.655l4.068-3.973A.742.742,0,0,0,19.373,6.9l-5.636-.811a.755.755,0,0,1-.554-.412L10.67.586A.755.755,0,0,0,10,.174a.737.737,0,0,0-.662.412" transform="translate(0 -0.174)" fill="url(#linear-gradient)"/>
    </clipPath>
    <clipPath id="clip-path-2">
      <path id="Path_136465" data-name="Path 136465" d="M13.023.586l-2.507,5.1a.766.766,0,0,1-.561.412L4.326,6.9a.738.738,0,0,0-.405,1.264l4.061,3.973a.742.742,0,0,1,.223.655l-.966,5.6a.735.735,0,0,0,1.074.777l5.034-2.642a.773.773,0,0,1,.689,0l5.034,2.642a.735.735,0,0,0,1.074-.777l-.96-5.6a.733.733,0,0,1,.209-.655l4.081-3.973A.749.749,0,0,0,23.051,6.9l-5.615-.811a.754.754,0,0,1-.561-.412l-2.52-5.1a.73.73,0,0,0-.662-.412.755.755,0,0,0-.669.412" transform="translate(-3.692 -0.174)" fill="url(#linear-gradient)"/>
    </clipPath>
    <clipPath id="clip-path-3">
      <path id="Path_136466" data-name="Path 136466" d="M16.723.586l-2.52,5.1a.755.755,0,0,1-.554.412L8.02,6.9a.741.741,0,0,0-.412,1.264l4.075,3.973a.752.752,0,0,1,.209.655l-.966,5.6a.742.742,0,0,0,1.081.777l5.034-2.642a.773.773,0,0,1,.689,0l5.034,2.642a.741.741,0,0,0,1.081-.777l-.966-5.6a.752.752,0,0,1,.209-.655l4.068-3.973A.738.738,0,0,0,26.751,6.9l-5.622-.811a.766.766,0,0,1-.561-.412l-2.52-5.1a.738.738,0,0,0-1.324,0" transform="translate(-7.384 -0.174)" fill="url(#linear-gradient)"/>
    </clipPath>
    <clipPath id="clip-path-4">
      <path id="Path_136467" data-name="Path 136467" d="M20.409.586l-2.514,5.1a.754.754,0,0,1-.561.412L11.712,6.9A.741.741,0,0,0,11.3,8.168l4.068,3.973a.72.72,0,0,1,.216.655l-.96,5.6a.735.735,0,0,0,1.074.777l5.034-2.642a.759.759,0,0,1,.682,0l5.041,2.642a.735.735,0,0,0,1.074-.777l-.96-5.6a.7.7,0,0,1,.216-.655l4.061-3.973A.738.738,0,0,0,30.443,6.9l-5.629-.811a.731.731,0,0,1-.554-.412L21.747.586a.749.749,0,0,0-1.338,0" transform="translate(-11.076 -0.174)" fill="url(#linear-gradient)"/>
    </clipPath>
    <clipPath id="clip-path-5">
      <path id="Path_136468" data-name="Path 136468" d="M24.107.586l-2.52,5.1a.766.766,0,0,1-.561.412L15.4,6.9a.741.741,0,0,0-.412,1.264l4.075,3.973a.772.772,0,0,1,.209.655l-.966,5.6a.736.736,0,0,0,1.074.777l5.034-2.642a.787.787,0,0,1,.7,0l5.027,2.642a.739.739,0,0,0,1.081-.777l-.966-5.6a.776.776,0,0,1,.216-.655l4.075-3.973A.741.741,0,0,0,34.135,6.9l-5.629-.811a.778.778,0,0,1-.561-.412L25.432.586a.738.738,0,0,0-1.324,0" transform="translate(-14.768 -0.174)" fill="url(#linear-gradient)"/>
    </clipPath>
  </defs>
  <g id="Rating-Icon-SVG-03mcdc" transform="translate(0 -0.174)">
    <g id="Group_61544" data-name="Group 61544" transform="translate(0 0.174)">
      <g id="Group_61543" data-name="Group 61543" clip-path="url(#clip-path)">
        <rect id="Rectangle_59565" data-name="Rectangle 59565" width="20.218" height="19.299" transform="translate(0 0)" fill="url(#linear-gradient)"/>
      </g>
    </g>
    <g id="Group_61546" data-name="Group 61546" transform="translate(24.949 0.174)">
      <g id="Group_61545" data-name="Group 61545" clip-path="url(#clip-path-2)">
        <rect id="Rectangle_59566" data-name="Rectangle 59566" width="20.427" height="19.299" transform="translate(-0.217 0)" fill="url(#linear-gradient)"/>
      </g>
    </g>
    <g id="Group_61548" data-name="Group 61548" transform="translate(49.895 0.174)">
      <g id="Group_61547" data-name="Group 61547" clip-path="url(#clip-path-3)">
        <rect id="Rectangle_59567" data-name="Rectangle 59567" width="20.434" height="19.299" transform="translate(-0.215 0)" fill="url(#linear-gradient)"/>
      </g>
    </g>
    <g id="Group_61550" data-name="Group 61550" transform="translate(74.843 0.174)">
      <g id="Group_61549" data-name="Group 61549" clip-path="url(#clip-path-4)">
        <rect id="Rectangle_59568" data-name="Rectangle 59568" width="20.434" height="19.299" transform="translate(-0.215 0)" fill="url(#linear-gradient)"/>
      </g>
    </g>
    <g id="Group_61552" data-name="Group 61552" transform="translate(99.791 0.174)">
      <g id="Group_61551" data-name="Group 61551" clip-path="url(#clip-path-5)">
        <rect id="Rectangle_59569" data-name="Rectangle 59569" width="20.434" height="19.299" transform="translate(-0.215 0)" fill="url(#linear-gradient)"/>
      </g>
    </g>
  </g>
</svg>
